<svg width="118" height="62" viewBox="0 0 118 62" fill="none" xmlns="http://www.w3.org/2000/svg">
<path d="M0.455565 14.7217L0.434928 11.4038C1.38614 11.2778 1.91579 10.8998 2.19447 8.43584L2.71078 3.66193H9.34678L9.39397 11.2498H10.234L10.2556 14.7217H8.26757L8.25686 12.9997H2.43285L2.44356 14.7217H0.455565ZM4.16934 8.57583C4.03718 9.83581 3.63657 10.7038 3.05197 11.2498H7.39197L7.35566 5.41189H4.51366L4.16934 8.57583ZM12.2026 5.50989C11.6286 5.50989 11.1356 5.0339 11.1319 4.44591C11.1283 3.85792 11.6154 3.39593 12.1894 3.39593C12.7774 3.39593 13.2563 3.85792 13.2599 4.44591C13.2636 5.0339 12.7906 5.50989 12.2026 5.50989ZM13.1452 12.9997H11.3672L11.3251 6.23788H13.1031L13.1452 12.9997ZM17.3732 13.1677C15.9732 13.1677 14.8785 12.7338 14.2165 12.0898L15.0216 10.9838C15.6549 11.5158 16.5524 11.7538 17.3644 11.7538C18.2744 11.7538 18.7626 11.4598 18.7599 11.0258C18.7567 10.5078 18.1672 10.2698 17.2432 10.2698H15.8572L15.8487 8.89783H17.2347C18.1587 8.89783 18.6191 8.64583 18.6161 8.16984C18.6136 7.76385 18.0519 7.48386 17.2539 7.48386C16.3719 7.48386 15.6874 7.73585 15.1586 8.25384L14.2841 7.20386C14.938 6.54587 15.9152 6.08388 17.1472 6.08388C19.2611 6.06988 20.4555 6.78387 20.4626 7.93185C20.468 8.79983 19.6037 9.38782 18.7086 9.52782C19.5349 9.58381 20.6162 10.1158 20.6226 11.1378C20.63 12.3278 19.3892 13.1677 17.3732 13.1677ZM23.7409 12.9997H21.9629L21.9208 6.23788H23.6988L23.7144 8.74383H26.5144L26.4988 6.23788H28.2768L28.3189 12.9997H26.5409L26.524 10.2978H23.724L23.7409 12.9997ZM35.9219 12.9997H34.1439L34.1396 12.2998C33.681 12.8458 32.885 13.1677 32.003 13.1677C30.925 13.1677 29.6465 12.4398 29.6371 10.9278C29.6272 9.34582 30.8975 8.74383 31.9755 8.74383C32.8715 8.74383 33.6713 9.03783 34.1226 9.56982L34.117 8.65983C34.1127 7.97385 33.5219 7.52585 32.6259 7.52585C31.8979 7.52585 31.2276 7.79185 30.6569 8.32384L29.9775 7.13386C30.7989 6.40588 31.8608 6.06988 32.9248 6.06988C34.4648 6.06988 35.8827 6.68587 35.8948 8.63183L35.9219 12.9997ZM32.7095 11.9638C33.2835 11.9638 33.8423 11.7678 34.1338 11.3758L34.1286 10.5358C33.8322 10.1438 33.271 9.94781 32.697 9.94781C31.997 9.94781 31.4252 10.3118 31.4293 10.9698C31.4332 11.5998 32.0095 11.9638 32.7095 11.9638ZM40.7235 12.9997H38.9315L38.8991 7.79185H37.0091L36.9995 6.23788H42.5715L42.5811 7.79185H40.6911L40.7235 12.9997ZM45.4365 12.9997H43.7285L43.6864 6.23788H45.4644L45.4898 10.3258L48.2504 6.23788H50.0424L50.0845 12.9997H48.3065L48.2801 8.75783L45.4365 12.9997ZM55.0006 13.1677C52.9146 13.1677 51.4075 11.6978 51.3945 9.61181C51.3816 7.53985 52.8705 6.06988 54.9565 6.06988C56.3425 6.06988 57.1862 6.67187 57.638 7.28786L56.4828 8.37984C56.1579 7.90385 55.6663 7.65185 55.0503 7.65185C53.9723 7.65185 53.2212 8.43584 53.2285 9.61181C53.2358 10.7878 53.9968 11.5858 55.0748 11.5858C55.6908 11.5858 56.179 11.3058 56.4983 10.8578L57.667 11.9358C57.2229 12.5658 56.3866 13.1677 55.0006 13.1677ZM60.6279 12.9997H58.6119L60.1647 10.5498C59.3934 10.3538 58.6611 9.65381 58.6536 8.44984C58.6462 7.25986 59.4798 6.23788 60.9778 6.23788H65.0798L65.1219 12.9997H63.3439L63.3294 10.6758H61.9434L60.6279 12.9997ZM61.2762 9.19182H63.3202L63.3112 7.73585H61.2672C60.7772 7.73585 60.457 8.02984 60.4596 8.44984C60.4623 8.88383 60.7722 9.19182 61.2762 9.19182ZM73.5705 11.5858C74.6765 11.5858 75.3009 10.6758 75.2941 9.58381C75.2877 8.56183 74.6521 7.65185 73.5461 7.65185C72.4401 7.65185 71.8297 8.56183 71.8361 9.58381C71.8429 10.6758 72.4645 11.5858 73.5705 11.5858ZM73.5804 13.1677C71.3264 13.1677 70 11.5018 69.9863 9.30382C69.9659 6.01388 71.1467 4.54391 73.4688 4.23592C74.6018 4.06792 74.9927 3.89992 74.9912 3.66193H76.8392C76.8474 4.9779 75.1417 5.3419 74.0366 5.48189C72.4419 5.69189 71.7882 6.39188 71.6111 7.17586C72.1527 6.46188 72.9762 6.06988 73.9142 6.06988C75.8462 6.06988 77.1165 7.72185 77.1282 9.59781C77.14 11.5018 75.8344 13.1677 73.5804 13.1677ZM79.3588 5.50989C78.7848 5.50989 78.2919 5.0339 78.2882 4.44591C78.2845 3.85792 78.7717 3.39593 79.3457 3.39593C79.9337 3.39593 80.4125 3.85792 80.4162 4.44591C80.4199 5.0339 79.9468 5.50989 79.3588 5.50989ZM80.3014 12.9997H78.5234L78.4813 6.23788H80.2593L80.3014 12.9997ZM81.4355 13.1677L81.4264 11.7118C81.9724 11.7118 82.2909 11.1518 82.4907 9.51382L82.9044 6.23788H88.3784L88.4204 12.9997H86.6424L86.61 7.79185H84.468L84.256 9.72381C83.9906 12.0618 83.1575 13.1677 81.4355 13.1677ZM90.1435 6.23788H91.9215L91.9359 8.56183H94.2459C95.8139 8.56183 96.6043 9.58381 96.6117 10.7738C96.6192 11.9778 95.7855 12.9997 94.2735 12.9997H90.1855L90.1435 6.23788ZM93.9891 10.0458H91.9451L91.9542 11.5018H93.9982C94.5022 11.5018 94.7943 11.1938 94.7917 10.7738C94.7891 10.3538 94.4931 10.0458 93.9891 10.0458ZM105.848 6.23788H107.64L107.682 12.9997H97.9238L97.8817 6.23788H99.6597L99.6921 11.4458H101.904L101.872 6.23788H103.65L103.682 11.4458H105.88L105.848 6.23788ZM112.628 13.1677C110.57 13.1677 109.008 11.7818 108.994 9.61181C108.982 7.65185 110.414 6.06988 112.472 6.06988C114.488 6.06988 115.869 7.58185 115.883 9.79381L115.886 10.1858H110.86C110.977 11.0398 111.667 11.7538 112.815 11.7538C113.389 11.7538 114.186 11.5018 114.617 11.0818L115.408 12.2298C114.74 12.8458 113.678 13.1677 112.628 13.1677ZM114.156 8.98183C114.11 8.33784 113.657 7.48386 112.481 7.48386C111.375 7.48386 110.904 8.30984 110.824 8.98183H114.156Z" fill="#333333"/>
<path d="M59.056 33.4998V61.4998M59.056 61.4998L68.056 52.4998M59.056 61.4998L50.056 52.4998" stroke="#333333" stroke-linecap="square" stroke-linejoin="bevel"/>
</svg>
